<svg width="24" height="27" viewBox="0 0 24 27" fill="none" xmlns="http://www.w3.org/2000/svg">
<g clip-path="url(#clip0_2252_47555)">
<path fill-rule="evenodd" clip-rule="evenodd" d="M12.942 0.419925C15.1628 0.418315 17.3466 0.991652 19.2833 2.08476C21.22 3.17786 22.8444 4.75393 24 6.66129C22.2271 6.68304 20.5341 7.40668 19.288 8.67537C18.0419 9.94401 17.3431 11.6555 17.3431 13.4388C17.3431 15.2221 18.0419 16.9336 19.288 18.2023C20.5341 19.471 22.2271 20.1946 24 20.2163C22.8242 22.1567 21.1641 23.7538 19.1845 24.8489C17.205 25.944 14.9749 26.499 12.716 26.4587C10.4571 26.4184 8.24803 25.7843 6.3083 24.6192C4.36861 23.4542 2.76581 21.7989 1.65921 19.8178C0.552619 17.8367 -0.0192305 15.5989 0.000493486 13.3267C0.0202175 11.0544 0.63083 8.82696 1.77165 6.86563C2.91246 4.9043 4.54375 3.2774 6.50338 2.14662C8.46302 1.01583 10.6828 0.420548 12.942 0.419925Z" fill="#FFC780"/>
<path fill-rule="evenodd" clip-rule="evenodd" d="M23.9976 6.66121C22.2246 6.68296 20.5316 7.4066 19.2856 8.67529C18.0395 9.94393 17.3407 11.6554 17.3407 13.4388C17.3407 15.2221 18.0395 16.9335 19.2856 18.2022C20.5316 19.4709 22.2246 20.1945 23.9976 20.2163L23.9554 20.2808C22.6395 21.4811 21.005 22.2707 19.2509 22.5536C17.4968 22.8365 15.6988 22.6005 14.0756 21.8743C12.4525 21.148 11.0742 19.9629 10.1086 18.4632C9.14296 16.9634 8.63162 15.2137 8.63676 13.427C8.64189 11.6402 9.16327 9.89348 10.1375 8.39939C11.1117 6.90524 12.4968 5.72819 14.1241 5.0114C15.7514 4.29463 17.5507 4.06906 19.3031 4.36215C21.0556 4.65523 22.6855 5.45435 23.9946 6.66222L23.9976 6.66121Z" fill="url(#paint0_linear_2252_47555)"/>
</g>
<defs>
<linearGradient id="paint0_linear_2252_47555" x1="16.3207" y1="22.6717" x2="16.3207" y2="4.23709" gradientUnits="userSpaceOnUse">
<stop stop-color="#FFC780"/>
<stop offset="1" stop-color="#964B48"/>
</linearGradient>
<clipPath id="clip0_2252_47555">
<rect width="24" height="26.88" fill="white"/>
</clipPath>
</defs>
</svg>
