<svg width="130" height="50" viewBox="0 0 130 50" fill="none" xmlns="http://www.w3.org/2000/svg">
<rect x="13" y="10" width="15" height="15" rx="7.5" fill="#FFCDC4"/>
<path d="M13 24.9999H28V39.9999H13V24.9999Z" fill="#FF661E"/>
<path d="M87.9998 10H72.9998V40H87.9998V10Z" fill="#EBFFBF"/>
<path d="M58.0002 10L88.0002 40H58.0002V10Z" fill="#12BB77"/>
<path d="M43 10C34.7157 10 28 16.7157 28 25C28 33.2843 34.7156 40 42.9999 40L43 10Z" fill="#F8C81D"/>
<path d="M58 10H43V25V40H58C58 31.7157 51.2843 25 43 25C51.2843 25 58 18.2843 58 10Z" fill="#F4E8C9"/>
<path d="M89.1418 19.2597C88.388 21.0796 88 23.0302 88 25H103L118 10H103C101.03 10 99.0796 10.388 97.2597 11.1418C95.4399 11.8956 93.7863 13.0005 92.3934 14.3934C91.0005 15.7863 89.8956 17.4399 89.1418 19.2597Z" fill="#CECBFF"/>
<path d="M88 39.9999H103C104.97 39.9999 106.92 39.612 108.74 38.8581C110.56 38.1043 112.214 36.9994 113.607 35.6065C114.999 34.2137 116.104 32.5601 116.858 30.7402C117.612 28.9203 118 26.9698 118 24.9999H103L88 39.9999Z" fill="#4B65FF"/>
</svg>
