<svg width="50" height="20" viewBox="0 0 50 20" fill="none" xmlns="http://www.w3.org/2000/svg">
<path d="M10.5207 13.1468C10.5848 13.2269 10.6328 13.339 10.6809 13.4671C10.7289 13.5792 10.7449 13.7073 10.7449 13.8193C10.7449 14.1076 10.6328 14.3638 10.4086 14.5559C10.1845 14.7481 9.92825 14.8442 9.64002 14.8442C9.49591 14.8442 9.3678 14.8121 9.2397 14.7481C9.1116 14.7 8.99951 14.588 8.91945 14.4759L5.3646 9.80013L3.81136 11.2893V13.8514C3.81136 14.1396 3.71528 14.3798 3.52313 14.5719C3.33097 14.7641 3.09078 14.8442 2.78654 14.8442C2.49831 14.8442 2.25812 14.7641 2.04995 14.5559C1.8578 14.3638 1.76172 14.1236 1.76172 13.8514V4.41983C1.76172 4.1316 1.8578 3.90742 2.04995 3.71526C2.2421 3.52311 2.49831 3.42703 2.80255 3.42703C3.09078 3.42703 3.33097 3.5071 3.52313 3.69925C3.71528 3.8914 3.79535 4.1316 3.79535 4.41983V8.87139L9.03154 3.73128C9.28774 3.47507 9.54395 3.34697 9.83218 3.34697C10.0884 3.34697 10.2965 3.45906 10.4567 3.66723C10.6328 3.87539 10.7129 4.09957 10.7129 4.32375C10.7129 4.54793 10.6168 4.7561 10.4246 4.94825L6.86981 8.34296L10.5207 13.1468ZM20.3366 10.4887C20.3366 11.3534 20.1444 12.138 19.7441 12.8266C19.3598 13.5311 18.8154 14.0595 18.1268 14.4438C17.4543 14.8282 16.7017 15.0043 15.885 15.0043C15.0524 15.0043 14.2998 14.8121 13.6272 14.4438C12.9707 14.0595 12.4263 13.5311 12.0419 12.8266C11.6576 12.138 11.4495 11.3534 11.4495 10.4887C11.4495 9.62399 11.6416 8.83936 12.0419 8.15081C12.4263 7.44625 12.9707 6.91782 13.6272 6.53352C14.2998 6.14921 15.0524 5.95706 15.885 5.95706C16.7017 5.95706 17.4543 6.14921 18.1268 6.53352C18.8154 6.91782 19.3438 7.46226 19.7441 8.15081C20.1444 8.83936 20.3366 9.62399 20.3366 10.4887ZM18.383 10.4887C18.383 9.96026 18.2709 9.47987 18.0467 9.04753C17.8226 8.6312 17.5183 8.31094 17.15 8.07075C16.7657 7.84657 16.3494 7.73448 15.901 7.73448C15.4527 7.73448 15.0363 7.84657 14.652 8.07075C14.2677 8.29493 13.9795 8.6312 13.7553 9.04753C13.5311 9.47987 13.4351 9.94425 13.4351 10.4887C13.4351 11.0171 13.5471 11.4975 13.7553 11.8978C13.9795 12.3141 14.2837 12.6344 14.652 12.8586C15.0203 13.0828 15.4367 13.2109 15.901 13.2109C16.3654 13.2109 16.7657 13.0988 17.15 12.8586C17.5183 12.6344 17.8226 12.3141 18.0467 11.8978C18.2709 11.4975 18.383 11.0171 18.383 10.4887ZM23.8114 13.8514C23.8114 14.1396 23.7153 14.3798 23.5231 14.5559C23.331 14.7481 23.1068 14.8442 22.8186 14.8442C22.5303 14.8442 22.2901 14.7641 22.114 14.5559C21.9218 14.3638 21.8418 14.1236 21.8418 13.8514V7.10998C21.8418 6.82175 21.9218 6.59757 22.114 6.40542C22.3062 6.21326 22.5463 6.11718 22.8186 6.11718C23.0908 6.11718 23.331 6.21326 23.5231 6.40542C23.7153 6.59757 23.8114 6.83776 23.8114 7.10998V13.8514ZM22.8186 5.06034C22.4503 5.06034 22.1941 4.99629 22.0339 4.86819C21.8738 4.7561 21.8098 4.54793 21.8098 4.24369V3.92343C21.8098 3.61919 21.8898 3.41102 22.066 3.29893C22.2261 3.18684 22.4983 3.10678 22.8506 3.10678C23.2349 3.10678 23.4911 3.17083 23.6512 3.29893C23.8114 3.42703 23.8754 3.61919 23.8754 3.92343V4.24369C23.8754 4.56394 23.7953 4.77211 23.6352 4.8842C23.4591 4.99629 23.1869 5.06034 22.8186 5.06034V5.06034ZM30.4727 5.95706C31.5776 5.95706 32.3622 6.27731 32.7785 6.94985C33.2109 7.60638 33.403 8.51911 33.403 9.68804V13.8674C33.403 14.1556 33.323 14.3958 33.1308 14.5719C32.9387 14.7641 32.6985 14.8602 32.4263 14.8602C32.138 14.8602 31.9138 14.7801 31.7217 14.5719C31.5295 14.3798 31.4335 14.1396 31.4335 13.8674V9.67203C31.4335 9.07955 31.3214 8.59917 31.0652 8.2629C30.809 7.92663 30.3766 7.75049 29.7681 7.75049C29.1436 7.75049 28.6472 7.94264 28.2789 8.29493C27.9267 8.66322 27.7505 9.12759 27.7505 9.67203V13.8514C27.7505 14.1396 27.6544 14.3798 27.4623 14.5559C27.2701 14.7481 27.0459 14.8442 26.7577 14.8442C26.4695 14.8442 26.2293 14.7641 26.0532 14.5559C25.861 14.3638 25.7809 14.1236 25.7809 13.8514V7.10998C25.7809 6.82175 25.861 6.59757 26.0532 6.40542C26.2453 6.21326 26.4855 6.11718 26.7577 6.11718C27.0299 6.11718 27.2701 6.21326 27.4623 6.40542C27.6544 6.59757 27.7505 6.83776 27.7505 7.10998V7.39821C28.0387 7.0139 28.423 6.66162 28.8874 6.3894C29.3998 6.08516 29.9122 5.95706 30.4727 5.95706V5.95706ZM37.6624 13.8514C37.6624 14.1396 37.5824 14.3798 37.3742 14.5559C37.1821 14.7481 36.9419 14.8442 36.6696 14.8442C36.3974 14.8442 36.1733 14.7641 35.9811 14.5559C35.7889 14.3638 35.7089 14.1236 35.7089 13.8514V3.7633C35.7089 3.47507 35.7889 3.25089 35.9971 3.05874C36.1893 2.86658 36.4295 2.77051 36.7017 2.77051C36.9739 2.77051 37.1981 2.86658 37.3902 3.05874C37.5824 3.25089 37.6624 3.49108 37.6624 3.7633V13.8514ZM46.1813 6.11718C46.4695 6.11718 46.7097 6.21326 46.8858 6.40542C47.078 6.59757 47.158 6.83776 47.158 7.10998V14.0435C47.158 15.4527 46.7737 16.4935 46.0211 17.134C45.2685 17.7745 44.2437 18.1108 42.9787 18.1108C42.6104 18.1108 42.2421 18.0788 41.8418 18.0307C41.4575 17.9667 41.1372 17.8866 40.897 17.7905C40.3686 17.5663 40.0964 17.2461 40.0964 16.8458C40.0964 16.7657 40.1124 16.6856 40.1444 16.5896C40.2085 16.3494 40.3206 16.1732 40.4807 16.0451C40.6408 15.933 40.801 15.853 40.9931 15.853C41.1052 15.853 41.2173 15.869 41.3134 15.901C41.3934 15.933 41.5215 15.9811 41.6977 16.0611C41.8898 16.1412 42.082 16.2053 42.3062 16.2533C42.5143 16.3013 42.7385 16.3173 42.9627 16.3173C43.7313 16.3173 44.3078 16.1572 44.6761 15.8209C45.0283 15.4847 45.2205 14.9242 45.2205 14.1076V13.9474C44.66 14.652 43.7793 15.0043 42.5784 15.0043C42.0179 15.0043 41.5055 14.8762 41.0892 14.62C40.6568 14.3478 40.3206 13.9795 40.0804 13.5151C39.8402 13.0347 39.7281 12.5063 39.7281 11.8978V7.10998C39.7281 6.82175 39.8082 6.59757 40.0003 6.40542C40.1925 6.21326 40.4327 6.11718 40.7049 6.11718C40.9771 6.11718 41.2173 6.21326 41.4094 6.40542C41.6016 6.59757 41.6817 6.83776 41.6817 7.10998V11.2893C41.6817 11.9779 41.8418 12.4583 42.146 12.7625C42.4343 13.0667 42.8826 13.2269 43.4591 13.2269C44.0195 13.2269 44.4679 13.0507 44.7721 12.7305C45.0764 12.4102 45.2365 11.9298 45.2365 11.3053V7.10998C45.2365 6.82175 45.3166 6.59757 45.5087 6.40542C45.6689 6.21326 45.893 6.11718 46.1813 6.11718V6.11718Z" fill="#335EEA"/>
</svg>
