<svg width="54" height="20" viewBox="0 0 54 20" fill="none" xmlns="http://www.w3.org/2000/svg">
<path d="M48.0602 11.6188H45.0602C45.1558 11.3774 45.308 11.1605 45.506 10.9875C45.8032 10.7537 46.1738 10.6331 46.5517 10.6472L46.5629 10.3474L46.574 10.6472C46.9526 10.6332 47.3233 10.7573 47.6171 10.9963C47.812 11.168 47.963 11.3814 48.0602 11.6188ZM40.4666 9.81414C40.4509 9.83947 40.4354 9.86491 40.42 9.89044V1.11719V0.817187H40.12H35.2575H34.9575V1.11719V7.41953C34.2487 6.95426 33.3437 6.73274 32.2672 6.73256C31.2152 6.72356 30.1796 6.9933 29.2656 7.51437L29.2649 7.5148C28.341 8.04506 27.5851 8.82469 27.0835 9.76448L27.0832 9.76514C27.0257 9.87359 26.9712 9.98339 26.9197 10.0944C26.8674 9.99909 26.8124 9.905 26.7549 9.81228L26.7535 9.80999C26.1314 8.82741 25.2454 8.03973 24.1967 7.53702C23.0525 6.98696 21.7957 6.71162 20.5264 6.73289C19.264 6.71321 18.0146 6.98867 16.8775 7.53735C15.8286 8.04187 14.9409 8.82836 14.3137 9.80878L14.3124 9.81081C14.2215 9.95547 14.137 10.1035 14.059 10.2546C13.8334 9.39925 13.4461 8.68826 12.8867 8.13318L12.8867 8.13314L12.8828 8.12938C12.3896 7.65747 11.8058 7.29047 11.1667 7.05057C10.5302 6.81164 9.85209 6.70371 9.17295 6.73324C8.4705 6.72767 7.77295 6.85084 7.11484 7.09666L7.11358 7.09714C6.68802 7.25827 6.28876 7.47891 5.92732 7.75155V7.24859V6.94859H5.62732H1H0.7V7.24859V19.0209V19.3209H1H5.86369H6.16369V19.0209V13.4899V13.4898C6.16346 12.7027 6.32733 12.1919 6.59366 11.892L6.59457 11.891C6.72987 11.7373 6.8976 11.6155 7.08565 11.5344C7.27371 11.4534 7.47741 11.415 7.68208 11.4222L7.68207 11.4224H7.69257C8.09442 11.4224 8.35584 11.5576 8.53033 11.8023C8.71814 12.0657 8.83526 12.4977 8.83526 13.1455V19.0209V19.3209H9.13526H13.999H14.299V19.0209V16.4132C14.3038 16.421 14.3087 16.4288 14.3136 16.4366L14.3136 16.4366L14.3149 16.4386C14.9434 17.4198 15.8298 18.2091 16.877 18.7199C18.0125 19.276 19.2634 19.5556 20.5275 19.5359C21.7987 19.5572 23.057 19.2775 24.1996 18.7198C25.2462 18.2106 26.1304 17.4202 26.7534 16.437L26.7549 16.4346C26.8116 16.3433 26.8658 16.2505 26.9174 16.1566C26.9695 16.2697 27.0246 16.3815 27.0829 16.4919L27.0829 16.492C27.5815 17.4367 28.3376 18.2209 29.2635 18.7538L29.2645 18.7544C30.1785 19.2754 31.2141 19.5452 32.2661 19.5362C33.4614 19.536 34.4477 19.2759 35.1931 18.7286V19.0213V19.3213H35.4931H40.12H40.42V19.0213V16.3326C40.4391 16.3642 40.4585 16.3957 40.4782 16.4271L40.4796 16.4293C41.1184 17.4274 42.028 18.2232 43.1021 18.7239L43.1024 18.724C44.3149 19.2873 45.6401 19.5654 46.9767 19.5373C49.3098 19.5367 51.1157 18.8889 52.3374 17.5455L52.529 17.3348L52.3284 17.1325L49.7889 14.5711L49.7823 14.5645H52.9333H53.2152L53.2327 14.2831C53.2744 13.6148 53.2968 13.2223 53.2976 13.1289C53.3308 11.9146 53.0139 10.7163 52.3846 9.67708L52.3846 9.67706L52.3823 9.67329C51.785 8.71937 50.9274 7.95623 49.9105 7.47396L49.9105 7.47394L49.9065 7.4721C48.8177 6.9752 47.633 6.72362 46.4362 6.73516C45.2393 6.74671 44.0597 7.0211 42.9807 7.53892L42.9807 7.53889L42.9768 7.54083C41.9475 8.05323 41.0794 8.83926 40.4675 9.81266L40.4666 9.81414ZM45.2534 14.5645H49.3677C49.0493 14.8136 48.6971 15.0163 48.3215 15.1663C47.9375 15.2932 47.5344 15.3527 47.1301 15.3422L47.1207 15.3419L47.1114 15.3422C46.6417 15.3592 46.1761 15.2498 45.7632 15.0255C45.5619 14.9078 45.3888 14.7504 45.2534 14.5645ZM33.4368 15.1483L33.4368 15.1482H33.4289H33.4271V15.1481L33.4195 15.1483C33.2036 15.1538 32.9893 15.111 32.792 15.0231C32.5965 14.9359 32.4227 14.8065 32.2831 14.6442C31.9474 14.2182 31.78 13.6837 31.813 13.1422L31.8141 13.1236L31.8129 13.1049C31.7787 12.5687 31.9448 12.039 32.2788 11.6184C32.4249 11.4623 32.6013 11.3376 32.7973 11.2519C32.9964 11.1648 33.2114 11.1198 33.4288 11.1198C33.6461 11.1198 33.8611 11.1648 34.0602 11.2519C34.2562 11.3376 34.4326 11.4623 34.5788 11.6184C34.9129 12.0389 35.079 12.5686 35.0446 13.1048L35.0434 13.1236L35.0446 13.1423C35.0776 13.6837 34.9102 14.2183 34.5745 14.6442C34.4347 14.8067 34.2607 14.9362 34.0649 15.0234C33.8675 15.1113 33.6529 15.154 33.4368 15.1483ZM20.5356 15.1483L20.5277 15.1481L20.5197 15.1483C20.3037 15.154 20.0891 15.1114 19.8916 15.0234C19.6958 14.9362 19.5218 14.8067 19.3821 14.6442C19.0462 14.2184 18.8787 13.6838 18.9117 13.1422L18.9128 13.1236L18.9116 13.1049C18.8773 12.5686 19.0435 12.0389 19.3778 11.6185C19.5239 11.4624 19.7004 11.3376 19.8964 11.2519C20.0955 11.1648 20.3105 11.1198 20.5278 11.1198C20.7452 11.1198 20.9602 11.1648 21.1593 11.2519C21.3553 11.3376 21.5317 11.4623 21.6779 11.6184C22.012 12.0389 22.1781 12.5686 22.1437 13.1048L22.1425 13.1236L22.1437 13.1423C22.1767 13.6837 22.0093 14.2183 21.6736 14.6442C21.5338 14.8067 21.3597 14.9362 21.1639 15.0234C20.9664 15.1114 20.7517 15.154 20.5356 15.1483Z" fill="white" stroke="#787878" stroke-width="0.6"/>
<path d="M31.3559 4.78361C31.6736 4.79918 31.9844 4.68794 32.22 4.47435C32.3317 4.35974 32.4182 4.22302 32.4739 4.07299C32.5296 3.92295 32.5532 3.76292 32.5433 3.6032C32.5532 3.44353 32.5295 3.28357 32.4738 3.1336C32.4181 2.98363 32.3317 2.84697 32.22 2.73241C32.1034 2.62658 31.967 2.5448 31.8188 2.49173C31.6705 2.43867 31.5132 2.41536 31.3559 2.42315H30.6531V4.78398L31.3559 4.78361ZM28.9759 1.11475H31.4288C31.9346 1.10446 32.4363 1.20773 32.897 1.41697C33.3032 1.60289 33.6465 1.90302 33.885 2.28074C34.1261 2.67897 34.2483 3.13782 34.2372 3.6032C34.2483 4.06857 34.1261 4.52742 33.885 4.92566C33.6466 5.30347 33.3033 5.60363 32.897 5.78942C32.4363 5.99866 31.9346 6.10193 31.4288 6.09164H28.9759V1.11475ZM28.6655 4.82763V6.09312H24.5276V1.11475H28.573V2.38024H26.177V2.96324H28.2815V4.17213H26.177V4.82763H28.6655ZM21.2967 2.41576H19.8389V1.11475H24.4321V2.41576H22.9747V6.09164H21.2967V2.41576ZM17.7388 6.20558C17.3331 6.20635 16.9286 6.15979 16.5336 6.06686C16.1945 5.99486 15.8691 5.86884 15.57 5.69361L16.1104 4.47066C16.361 4.61376 16.6286 4.72486 16.9069 4.80136C17.1818 4.88148 17.4665 4.92331 17.7529 4.92566C17.9216 4.93529 18.0907 4.91244 18.2508 4.85833C18.2934 4.84401 18.3305 4.81682 18.357 4.78051C18.3835 4.7442 18.3981 4.70056 18.3988 4.65561C18.3988 4.5513 18.3337 4.47324 18.2034 4.42072C17.9937 4.34708 17.7785 4.29006 17.5598 4.25018C17.2343 4.1856 16.9136 4.09909 16.5998 3.99124C16.3425 3.8979 16.1127 3.7413 15.9318 3.53587C15.7321 3.29664 15.6305 2.99066 15.6473 2.67951C15.6448 2.37471 15.7367 2.07661 15.9103 1.8261C16.1083 1.55234 16.3817 1.34217 16.6971 1.22129C17.1014 1.06432 17.5328 0.989499 17.9663 1.00119C18.3047 1.00123 18.6419 1.03845 18.9721 1.11216C19.2769 1.17653 19.5705 1.2856 19.8433 1.43584L19.3384 2.65065C18.9117 2.42001 18.4367 2.29327 17.9519 2.28074C17.5206 2.28074 17.3049 2.38505 17.3049 2.59369C17.3049 2.69233 17.3689 2.76632 17.4969 2.81564C17.7032 2.88674 17.9148 2.94105 18.1298 2.97803C18.4555 3.03518 18.7763 3.11717 19.0894 3.22329C19.3496 3.31539 19.5829 3.47043 19.7686 3.67459C19.9706 3.9115 20.0737 4.21711 20.0564 4.52799C20.0594 4.83207 19.9675 5.12951 19.7934 5.37881C19.5943 5.65089 19.3217 5.86047 19.0076 5.98288C18.6041 6.14203 18.1725 6.21778 17.7388 6.20558V6.20558ZM13.029 6.20558C12.7055 6.22501 12.3812 6.18038 12.0749 6.07424C11.7687 5.9681 11.4863 5.80255 11.2442 5.58707C11.0234 5.35785 10.8525 5.08531 10.7424 4.78669C10.6323 4.48806 10.5854 4.16984 10.6046 3.85215V1.11475H12.2825V3.80221C12.2595 4.0818 12.3279 4.3613 12.4775 4.59865C12.5492 4.6771 12.6366 4.73976 12.7339 4.78262C12.8312 4.82549 12.9364 4.84762 13.0427 4.84762C13.149 4.84762 13.2542 4.82549 13.3515 4.78262C13.4488 4.73976 13.5362 4.6771 13.6079 4.59865C13.7578 4.36139 13.8264 4.08188 13.8036 3.80221V1.11475H15.4531V3.85215C15.4722 4.16987 15.4252 4.4881 15.3151 4.78673C15.2049 5.08536 15.034 5.35788 14.8131 5.58707C14.5711 5.80251 14.2889 5.96804 13.9827 6.07418C13.6766 6.18032 13.3525 6.22497 13.029 6.20558ZM8.66028 2.99172C8.66492 2.91192 8.65206 2.83206 8.6226 2.75775C8.59314 2.68344 8.5478 2.61646 8.48975 2.5615C8.34375 2.44922 8.16143 2.39482 7.97778 2.40873H7.3663V3.57471H7.97778C8.16145 3.5888 8.34383 3.53437 8.48975 3.42193C8.5478 3.36698 8.59314 3.3 8.6226 3.22569C8.65206 3.15138 8.66492 3.07152 8.66028 2.99172V2.99172ZM7.8213 4.84131H7.3663V6.09238H5.68835V1.11475H8.08432C8.49646 1.10544 8.90595 1.18295 9.28618 1.34225C9.60789 1.47776 9.88239 1.70528 10.0752 1.99627C10.2638 2.29348 10.3603 2.63981 10.3527 2.99172C10.3599 3.31873 10.2759 3.64129 10.11 3.92318C9.94183 4.1955 9.70027 4.41487 9.41306 4.55611L10.4585 6.09164H8.66731L7.8213 4.84131ZM2.45748 2.41576H1V1.11475H5.59291V2.41576H4.13543V6.09164H2.45748V2.41576Z" fill="url(#paint0_linear_2655_54396)"/>
<defs>
<linearGradient id="paint0_linear_2655_54396" x1="1" y1="3.6032" x2="34.2357" y2="3.6032" gradientUnits="userSpaceOnUse">
<stop stop-color="#FF00F6"/>
<stop offset="1" stop-color="#28B5FF"/>
</linearGradient>
</defs>
</svg>
