<?xml version="1.0" ?><!DOCTYPE svg  PUBLIC '-//W3C//DTD SVG 1.1//EN'  'http://www.w3.org/Graphics/SVG/1.1/DTD/svg11.dtd'><svg height="96" version="1.1" viewBox="0 0 96 96" width="96" xmlns="http://www.w3.org/2000/svg" xmlns:xlink="http://www.w3.org/1999/xlink"><path d="M94 18h-92c-1.104 0-2 0.9-2 2v56c0 1.1 0.896 2 2 2h92c1.1 0 2-0.9 2-2v-56c0-1.1-0.9-2-2-2zM84.996 65.372c0.956 0.552 1.284 1.772 0.74 2.736-0.368 0.644-1.044 1.004-1.736 1.004-0.336 0-0.68-0.084-0.996-0.264l-27.568-15.832-6.196 4.904c-0.044 0.036-0.104-0.144-0.156-0.112-0.328 0.22-0.688 0.208-1.076 0.208h-0.012c-0.388 0-0.752 0.012-1.080-0.208-0.048-0.032-0.108 0.068-0.156 0.032l-6.2-4.856-27.564 15.852c-0.316 0.172-0.656 0.264-0.996 0.264-0.692 0-1.368-0.352-1.736-0.996-0.552-0.956-0.22-2.176 0.74-2.736l26.176-15.032-26.42-20.864c-0.868-0.692-1.012-1.944-0.332-2.808 0.688-0.868 1.944-1.016 2.812-0.332l34.76 27.456 34.756-27.456c0.868-0.684 2.124-0.536 2.812 0.332 0.688 0.864 0.54 2.12-0.328 2.808l-26.42 20.868 26.176 15.032z"/></svg>