<svg width="166" height="29" viewBox="0 0 166 29" fill="none" xmlns="http://www.w3.org/2000/svg">
<rect width="28.0566" height="28.0566" rx="10" fill="#1A1D26"/>
<path d="M11.1228 18.962L7.72877 13.0834C7.64416 12.9369 7.59961 12.7706 7.59961 12.6014C7.59961 12.4322 7.64416 12.266 7.72877 12.1194L11.1228 6.24371C11.2074 6.09716 11.3291 5.97547 11.4756 5.89086C11.6222 5.80625 11.7884 5.76171 11.9577 5.76172H18.7428C18.912 5.76171 19.0783 5.80625 19.2248 5.89086C19.3714 5.97547 19.4931 6.09716 19.5777 6.24371L22.9832 12.1251L21.3135 13.0891L18.1977 7.69542H12.5143L9.67681 12.6071L12.7925 18.0037L11.1228 18.962Z" fill="white" stroke="white" stroke-width="0.2"/>
<path d="M16.0978 22.1613H9.29829C9.12907 22.1613 8.96283 22.1168 8.81628 22.0322C8.66973 21.9476 8.54803 21.8259 8.46342 21.6793L5.07227 15.8065L6.73915 14.8425L9.85487 20.2391H15.524L18.3586 15.3245L15.2457 9.93079L16.9126 8.9668L20.3066 14.8425C20.3912 14.9891 20.4358 15.1553 20.4358 15.3245C20.4358 15.4937 20.3912 15.6599 20.3066 15.8065L16.9126 21.6851C16.8294 21.828 16.7107 21.947 16.5679 22.0304C16.4251 22.1139 16.2632 22.159 16.0978 22.1613V22.1613Z" fill="white" stroke="white" stroke-width="0.2"/>
<g clip-path="url(#clip0_1615_5635)">
<path d="M45.4202 18.0677L45.5027 17.9749L44.2861 16.7995L44.1984 16.8923C43.8111 17.3099 43.3399 17.641 42.8158 17.864C42.2917 18.0869 41.7264 18.1968 41.1569 18.1863C40.3971 18.1971 39.6475 18.0106 38.9814 17.645C38.3384 17.3028 37.803 16.7888 37.4349 16.1603C37.0765 15.5107 36.8886 14.7808 36.8886 14.0389C36.8886 13.297 37.0765 12.5672 37.4349 11.9176C37.803 11.289 38.3384 10.775 38.9814 10.4329C39.6475 10.0673 40.3971 9.88083 41.1569 9.89161C41.7251 9.87978 42.2895 9.98746 42.8135 10.2077C43.3375 10.4279 43.8093 10.7558 44.1984 11.1701L44.2861 11.268L45.5027 10.0875L45.4202 9.99471C44.9005 9.41146 44.253 8.95627 43.5283 8.66468C42.753 8.36279 41.927 8.2123 41.095 8.22134C40.0169 8.20604 38.9525 8.46502 38.0019 8.97399C37.1069 9.45277 36.3586 10.1655 35.8368 11.0361C35.3265 11.9472 35.0586 12.974 35.0586 14.0183C35.0586 15.0626 35.3265 16.0894 35.8368 17.0006C36.3546 17.8708 37.0995 18.5836 37.9916 19.0626C38.8363 19.5039 39.7657 19.7589 40.7172 19.8105C41.6687 19.862 42.6203 19.709 43.5076 19.3616C44.2361 19.0829 44.8905 18.6402 45.4202 18.0677V18.0677Z" fill="#1A1D26"/>
<path d="M57.2718 10.5358L60.3649 7.44274L59.2256 6.30859L56.1325 9.40169C55.919 9.24423 55.6951 9.10129 55.4623 8.97382C54.5071 8.47682 53.4461 8.21733 52.3693 8.21733C51.2924 8.21733 50.2314 8.47682 49.2762 8.97382C48.3771 9.46285 47.6271 10.1861 47.1058 11.0668C46.5892 11.973 46.3175 12.9982 46.3175 14.0413C46.3175 15.0845 46.5892 16.1097 47.1058 17.0159C47.2816 17.3023 47.4817 17.5731 47.7038 17.8252L44.8994 20.6296L46.0335 21.7689L48.9204 18.8769C49.039 18.9542 49.1524 19.0367 49.2762 19.1037C50.2314 19.6007 51.2924 19.8602 52.3693 19.8602C53.4461 19.8602 54.5071 19.6007 55.4623 19.1037C56.3595 18.6279 57.1086 17.9146 57.6275 17.0416C58.1378 16.1305 58.4057 15.1037 58.4057 14.0594C58.4057 13.0151 58.1378 11.9883 57.6275 11.0771C57.5185 10.8906 57.3997 10.7099 57.2718 10.5358V10.5358ZM56.0139 11.9174C56.3723 12.567 56.5602 13.2969 56.5602 14.0388C56.5602 14.7807 56.3723 15.5105 56.0139 16.1601C55.6584 16.7819 55.142 17.2965 54.519 17.65C53.863 18.0054 53.1254 18.1831 52.3796 18.1655C51.6264 18.1755 50.8837 17.9889 50.2247 17.6242L50.1835 17.5984L55.9624 11.8195C55.9779 11.871 55.9985 11.8916 56.0139 11.9174ZM48.9823 16.5571C48.8841 16.4339 48.7962 16.3028 48.7194 16.1653C48.3578 15.5167 48.168 14.7865 48.168 14.0439C48.168 13.3014 48.3578 12.5711 48.7194 11.9226C49.0746 11.2983 49.5955 10.7844 50.2247 10.4379C50.8839 10.0736 51.6265 9.88703 52.3796 9.8966C53.1279 9.88516 53.8661 10.0719 54.519 10.4379C54.6408 10.5074 54.7579 10.5849 54.8695 10.6699L48.9823 16.5571Z" fill="#1A1D26"/>
<path d="M66.4477 13.8554C65.775 13.6059 65.086 13.4027 64.3856 13.2471C63.7464 13.0976 63.236 12.9584 62.8648 12.8295C62.5335 12.7214 62.2281 12.5459 61.9678 12.314C61.8533 12.2083 61.7635 12.0787 61.7047 11.9343C61.6459 11.79 61.6196 11.6345 61.6276 11.4789C61.6245 11.2483 61.6795 11.0207 61.7876 10.8171C61.8957 10.6134 62.0535 10.4403 62.2462 10.3138C62.8331 9.95873 63.5159 9.7948 64.2 9.84468C65.2565 9.8569 66.2885 10.164 67.1797 10.7314L67.3137 10.8139L67.9324 9.30338L67.8499 9.24152C67.3382 8.89507 66.7692 8.64201 66.1693 8.49403C65.5267 8.32382 64.8648 8.23718 64.2 8.23627C63.3706 8.21039 62.545 8.35969 61.7771 8.67445C61.1799 8.92116 60.6662 9.33456 60.2976 9.86529C59.9725 10.3631 59.802 10.9461 59.8078 11.5407C59.7723 12.1856 59.9802 12.8203 60.3904 13.3193C60.7618 13.7491 61.2325 14.0818 61.7616 14.2884C62.4347 14.5368 63.1236 14.74 63.8237 14.8967C64.4836 15.0514 65.0042 15.1957 65.3702 15.3195C65.6951 15.4284 65.9936 15.604 66.2466 15.835C66.3586 15.9424 66.4463 16.0725 66.5041 16.2165C66.5619 16.3604 66.5883 16.5151 66.5817 16.6701C66.5857 16.8991 66.5297 17.1252 66.4194 17.326C66.3091 17.5267 66.1482 17.6951 65.9528 17.8146C65.3444 18.1515 64.6516 18.3054 63.9577 18.2579C63.2761 18.2588 62.5994 18.142 61.9575 17.9125C61.3761 17.7157 60.8385 17.4075 60.3749 17.0052L60.246 16.8918L59.5449 18.3713L59.6119 18.4383C60.1599 18.9102 60.801 19.2615 61.4936 19.4694C62.2882 19.7334 63.1203 19.8675 63.9577 19.8663C64.7914 19.8878 65.6208 19.7405 66.3961 19.4333C67.002 19.1918 67.5236 18.7777 67.8963 18.2424C68.231 17.7496 68.4105 17.1679 68.4118 16.5722C68.4408 15.936 68.2333 15.3116 67.8293 14.8194C67.4539 14.3905 66.9797 14.0597 66.4477 13.8554V13.8554Z" fill="#1A1D26"/>
<path d="M81.0315 8.34961L76.5259 16.0463L71.9997 8.41147L71.9584 8.34961H70.4531V19.7322H72.2368V12.0098L76.0568 18.3816H76.9383L80.7583 11.9634L80.7738 19.7322H82.5574L82.5368 8.34961H81.0315Z" fill="#1A1D26"/>
<path d="M93.8685 8.97329C92.9132 8.47628 91.8522 8.2168 90.7754 8.2168C89.6986 8.2168 88.6376 8.47628 87.6823 8.97329C86.7832 9.46232 86.0333 10.1855 85.512 11.0663C84.9953 11.9725 84.7236 12.9977 84.7236 14.0408C84.7236 15.084 84.9953 16.1091 85.512 17.0153C86.034 17.8942 86.7839 18.6156 87.6823 19.1032C88.6376 19.6002 89.6986 19.8597 90.7754 19.8597C91.8522 19.8597 92.9132 19.6002 93.8685 19.1032C94.7657 18.6274 95.5147 17.914 96.0337 17.0411C96.5473 16.1311 96.8172 15.1038 96.8172 14.0588C96.8172 13.0139 96.5473 11.9866 96.0337 11.0766C95.5192 10.1896 94.77 9.46185 93.8685 8.97329ZM94.9666 14.0408C94.975 14.783 94.7864 15.5141 94.4201 16.1596C94.0645 16.7814 93.5481 17.296 92.9251 17.6494C92.2657 18.0032 91.5289 18.1883 90.7806 18.1883C90.0322 18.1883 89.2955 18.0032 88.636 17.6494C88.0054 17.303 87.4828 16.7892 87.1255 16.1647C86.7672 15.5151 86.5793 14.7853 86.5793 14.0434C86.5793 13.3015 86.7672 12.5717 87.1255 11.922C87.4828 11.2975 88.0054 10.7838 88.636 10.4373C89.2931 10.0726 90.0342 9.88596 90.7857 9.89606C91.5342 9.88413 92.2724 10.0709 92.9251 10.4373C93.549 10.7873 94.0659 11.3006 94.4201 11.922C94.7855 12.5679 94.974 13.2988 94.9666 14.0408V14.0408Z" fill="#1A1D26"/>
<path d="M104.844 13.8554C104.171 13.607 103.482 13.4038 102.782 13.2471C102.142 13.0976 101.632 12.9584 101.261 12.8295C100.93 12.7214 100.624 12.5459 100.364 12.314C100.249 12.2083 100.16 12.0787 100.101 11.9343C100.042 11.79 100.016 11.6345 100.024 11.4789C100.021 11.2483 100.076 11.0207 100.184 10.8171C100.292 10.6134 100.45 10.4403 100.642 10.3138C101.229 9.95873 101.912 9.7948 102.596 9.84468C103.12 9.84579 103.641 9.92218 104.143 10.0715C104.66 10.2197 105.153 10.4419 105.607 10.7314L105.736 10.8139L106.359 9.30338L106.272 9.24152C105.761 8.8961 105.194 8.64309 104.596 8.49403C103.952 8.32338 103.288 8.23674 102.622 8.23627C101.792 8.21039 100.967 8.35969 100.199 8.67445C99.6017 8.92116 99.0881 9.33456 98.7194 9.86529C98.3943 10.3631 98.2239 10.9461 98.2297 11.5407C98.1942 12.1856 98.4021 12.8203 98.8122 13.3193C99.1846 13.748 99.655 14.0805 100.184 14.2884C100.857 14.5368 101.545 14.74 102.246 14.8967C102.905 15.0514 103.426 15.1957 103.792 15.3195C104.117 15.4284 104.415 15.604 104.669 15.835C104.78 15.9424 104.868 16.0725 104.926 16.2165C104.984 16.3604 105.01 16.5151 105.004 16.6701C105.008 16.8991 104.952 17.1252 104.841 17.326C104.731 17.5267 104.57 17.6951 104.375 17.8146C103.766 18.1515 103.073 18.3054 102.38 18.2579C101.7 18.2593 101.025 18.1424 100.385 17.9125C99.8011 17.7168 99.2616 17.4085 98.7968 17.0052L98.6679 16.8918L97.9668 18.3713L98.0338 18.4383C98.5818 18.9102 99.2229 19.2615 99.9154 19.4694C100.71 19.7334 101.542 19.8675 102.38 19.8663C103.213 19.8878 104.043 19.7405 104.818 19.4333C105.424 19.1903 105.947 18.7766 106.323 18.2424C106.658 17.7497 106.838 17.1679 106.839 16.5722C106.869 15.9367 106.664 15.3124 106.261 14.8194C105.873 14.3889 105.387 14.0582 104.844 13.8554V13.8554Z" fill="#1A1D26"/>
<path d="M116.562 8.34961H107.097V9.98895H110.911V19.7322H112.747V9.98895H116.562V8.34961Z" fill="#1A1D26"/>
<path d="M120.876 8.34473L115.721 19.7479H117.644L118.865 16.9642H124.613L125.835 19.7479H127.789L122.634 8.36019L120.876 8.34473ZM123.943 15.4228H119.536L121.737 10.4171L123.943 15.4228Z" fill="#1A1D26"/>
<path d="M126.954 9.98895H130.769V19.7322H132.599V9.98895H136.414V8.34961H126.954V9.98895Z" fill="#1A1D26"/>
<path d="M139.733 8.34961H137.888V19.7374H139.733V8.34961Z" fill="#1A1D26"/>
<path d="M151.049 8.97328C150.094 8.47628 149.033 8.2168 147.956 8.2168C146.88 8.2168 145.819 8.47628 144.863 8.97328C143.962 9.46157 143.21 10.1849 142.688 11.0663C142.171 11.9725 141.899 12.9977 141.899 14.0408C141.899 15.0839 142.171 16.1091 142.688 17.0153C143.211 17.8949 143.963 18.6163 144.863 19.1032C145.818 19.6027 146.879 19.8636 147.956 19.8636C149.034 19.8636 150.095 19.6027 151.049 19.1032C151.947 18.6274 152.696 17.914 153.215 17.0411C153.728 16.1311 153.998 15.1038 153.998 14.0588C153.998 13.0139 153.728 11.9866 153.215 11.0766C152.7 10.1896 151.951 9.46185 151.049 8.97328V8.97328ZM152.147 14.0408C152.152 14.776 151.964 15.4995 151.601 16.139C151.247 16.7604 150.73 17.2737 150.106 17.6236V17.6236C149.447 17.9774 148.71 18.1625 147.962 18.1625C147.213 18.1625 146.476 17.9774 145.817 17.6236C145.186 17.2772 144.664 16.7635 144.306 16.139C143.948 15.4893 143.76 14.7595 143.76 14.0176C143.76 13.2757 143.948 12.5459 144.306 11.8963C144.664 11.2717 145.186 10.758 145.817 10.4116C146.476 10.0461 147.219 9.85952 147.972 9.87028C148.719 9.85877 149.455 10.0456 150.106 10.4116C150.73 10.7615 151.247 11.2748 151.601 11.8963C151.971 12.5497 152.16 13.2901 152.147 14.0408V14.0408Z" fill="#1A1D26"/>
<path d="M164.148 8.34961V16.4071L157.704 8.39601L157.663 8.34961H156.168V19.7322H158.019V11.6747L164.463 19.6858L164.504 19.7322H165.999V8.34961H164.148Z" fill="#1A1D26"/>
</g>
<defs>
<clipPath id="clip0_1615_5635">
<rect width="130.931" height="15.4552" fill="white" transform="translate(35.0684 6.31348)"/>
</clipPath>
</defs>
</svg>
