<svg width="80" height="27" viewBox="0 0 80 27" fill="none" xmlns="http://www.w3.org/2000/svg">
<g clip-path="url(#clip0_1615_5636)">
<path d="M68.3576 25.0527V26.7359H79.9102V19.1446H78.2268V25.0527H68.3576ZM68.3576 0V1.68322H78.2268V7.59169H79.9102V0H68.3576ZM62.4 13.0216V9.11035H65.0406C66.3281 9.11035 66.7902 9.53934 66.7902 10.7113V11.4043C66.7902 12.609 66.3444 13.0216 65.0406 13.0216H62.4ZM66.5918 13.7147C67.7964 13.4011 68.6379 12.2787 68.6379 10.9422C68.6379 10.1006 68.3081 9.34122 67.681 8.73048C66.8888 7.97115 65.8323 7.59169 64.4627 7.59169H60.7495V19.1442H62.4V14.5399H64.8756C66.1462 14.5399 66.658 15.0679 66.658 16.3885V19.1446H68.3413V16.6525C68.3413 14.8371 67.9123 14.1441 66.5918 13.9459V13.7147ZM52.696 14.0941H57.7792V12.5759H52.696V9.10995H58.2743V7.59169H51.0124V19.1442H58.5218V17.6259H52.696V14.0941ZM47.167 14.7049V15.4969C47.167 17.1638 46.5562 17.7086 45.0216 17.7086H44.6586C43.1236 17.7086 42.381 17.2133 42.381 14.9194V11.8165C42.381 9.50619 43.1568 9.02728 44.6914 9.02728H45.0212C46.5232 9.02728 47.0018 9.58847 47.0181 11.1399H48.8336C48.6686 8.86231 47.1503 7.42674 44.8727 7.42674C43.7671 7.42674 42.8428 7.77343 42.1498 8.43332C41.11 9.40714 40.5324 11.0576 40.5324 13.368C40.5324 15.596 41.0277 17.2465 42.0508 18.2694C42.7438 18.9461 43.7011 19.3092 44.6419 19.3092C45.632 19.3092 46.5399 18.9129 47.0018 18.0549H47.2326V19.1442H48.7509V13.1866H44.2784V14.7049H47.167ZM32.6112 9.10995H34.4102C36.1103 9.10995 37.0346 9.53894 37.0346 11.8497V14.8862C37.0346 17.1966 36.1103 17.6259 34.4102 17.6259H32.6112V9.10995ZM34.5585 19.1446C37.7109 19.1446 38.8823 16.7516 38.8823 13.3684C38.8823 9.93558 37.6282 7.59208 34.5253 7.59208H30.9604V19.1446H34.5585ZM22.9897 14.0941H28.0729V12.5759H22.9897V9.10995H28.5677V7.59169H21.3059V19.1442H28.8155V17.6259H22.9897V14.0941ZM13.2525 7.59169H11.5693V19.1442H19.161V17.6259H13.2525V7.59169ZM0 19.1446V26.7363H11.5525V25.0527H1.68323V19.1446H0ZM0 0V7.59169H1.68323V1.68322H11.5525V0H0Z" fill="black"/>
</g>
<defs>
<clipPath id="clip0_1615_5636">
<rect width="80" height="26.7363" fill="white"/>
</clipPath>
</defs>
</svg>
